<svg width="54" height="39" viewBox="0 0 54 39" fill="none" xmlns="http://www.w3.org/2000/svg">
<path d="M22.4364 17.0546C21.8692 16.8628 21.2436 16.9212 20.7097 17.2215L1.5909 28.2824C1.58256 28.2824 1.58256 28.2907 1.56588 28.2907C0.598262 28.8829 0.289625 29.9924 0.798459 31.0351C1.43242 32.328 3.67629 33.5542 6.37895 34.0881C7.2131 34.2549 8.22243 34.3717 9.36522 34.3717C11.5173 34.3717 14.1533 33.9463 17.0978 32.5782C19.3751 31.5189 21.5355 29.2083 22.8785 26.3888C24.2966 23.4192 24.5802 20.433 23.6459 18.1807C23.4374 17.6552 22.987 17.2465 22.4364 17.0546Z" fill="#7CE0D6"/>
<path d="M52.0821 28.3086C52.0738 28.3086 52.0738 28.3003 52.0571 28.3003L32.9383 17.2394C32.4211 16.9307 31.7955 16.8723 31.2116 17.0725C30.6611 17.2644 30.2106 17.6731 29.9937 18.207C29.0595 20.4592 29.3431 23.4538 30.7612 26.4151C32.1041 29.2345 34.2646 31.5451 36.5418 32.6045C39.4697 33.9725 42.114 34.3979 44.2744 34.3979C45.4172 34.3979 46.4266 34.2811 47.2607 34.1143C49.9634 33.5971 52.2073 32.3709 52.8412 31.0613C53.3584 30.0019 53.0497 28.9092 52.0821 28.3086Z" fill="#7CE0D6"/>
<path d="M19.884 0.147217C19.3084 0.147217 18.8496 0.614343 18.8496 1.18157C18.8496 1.74879 19.3167 2.21592 19.884 2.21592C22.0945 2.21592 23.8962 4.01769 23.8962 6.2282C23.8962 6.79542 24.3634 7.26255 24.9306 7.26255C25.2059 7.26255 25.4728 7.15411 25.6646 6.95391C25.8565 6.75372 25.9649 6.49513 25.9566 6.21152C25.9566 2.8749 23.2373 0.147217 19.884 0.147217Z" fill="#2C3437"/>
<path d="M33.7893 0.162842C30.436 0.162842 27.7 2.88218 27.7 6.23548C27.7 6.80271 28.1671 7.26983 28.7343 7.26983C29.2932 7.26983 29.7603 6.81105 29.7687 6.25217C29.7687 4.04166 31.5704 2.23989 33.7809 2.23989C34.3565 2.23989 34.8153 1.77276 34.8153 1.20553C34.8153 0.63831 34.3565 0.162842 33.7893 0.162842Z" fill="#2C3437"/>
<path d="M35.8414 32.7622H35.7496H33.9228H19.7422H17.9154H17.6318H16.0886L25.0725 37.934C25.6147 38.2509 26.2319 38.4094 26.8409 38.4094C27.4581 38.4094 28.0671 38.2593 28.6093 37.934L37.5931 32.7622H35.8414Z" fill="#2C3437"/>
<path d="M38.6189 21.3435H37.7097H15.955H15.0374H14.1282V27.2743H15.0374H15.955H37.7097H38.6189H39.5365V21.3435H38.6189Z" fill="#2C3437"/>
<path d="M37.7681 15.9621L37.5429 15.8286H35.7161H35.2656H33.8809H19.7754H18.5492H17.9486H16.1218L15.8966 15.9621C14.8122 16.5877 14.1282 17.7639 14.1282 19.0151V21.334H15.0457H15.9633H37.718H38.6356H39.5532V19.0151C39.5365 17.7639 38.8525 16.596 37.7681 15.9621Z" fill="#FFDD0F"/>
<path d="M38.619 27.2657H37.7014H15.955H15.0374H14.1199V29.6013C14.1199 30.8525 14.7955 32.0287 15.8883 32.6543L16.0801 32.7627H17.6233H17.9069H19.7337H33.906H35.7328H35.8246H37.5596L37.7598 32.646C38.8442 32.012 39.5199 30.8442 39.5199 29.593V27.2573H38.619V27.2657Z" fill="#FFDD0F"/>
<path d="M28.5925 10.6823C27.4914 10.0483 26.1484 10.0483 25.064 10.6823L16.1135 15.8457H17.9403H18.5409H19.7671H33.881H35.249H35.7078H37.5346L28.5925 10.6823Z" fill="#2C3437"/>
</svg>
